<?xml version="1.0" encoding="UTF-8" standalone="no"?>
<!-- icon666.com - MILLIONS OF FREE VECTOR ICONS -->

<svg
   id="Layer_1"
   viewBox="0 0 100 100"
   data-name="Layer 1"
   version="1.1"
   sodipodi:docname="arrow_left.svg"
   inkscape:version="1.4.3 (0d15f75, 2025-12-25)"
   xmlns:inkscape="http://www.inkscape.org/namespaces/inkscape"
   xmlns:sodipodi="http://sodipodi.sourceforge.net/DTD/sodipodi-0.dtd"
   xmlns="http://www.w3.org/2000/svg"
   xmlns:svg="http://www.w3.org/2000/svg">
  <defs
     id="defs1" />
  <sodipodi:namedview
     id="namedview1"
     pagecolor="#ffffff"
     bordercolor="#000000"
     borderopacity="0.25"
     inkscape:showpageshadow="2"
     inkscape:pageopacity="0.0"
     inkscape:pagecheckerboard="0"
     inkscape:deskcolor="#d1d1d1"
     showguides="true"
     inkscape:zoom="2.8284271"
     inkscape:cx="55.331105"
     inkscape:cy="54.270445"
     inkscape:window-width="1920"
     inkscape:window-height="1009"
     inkscape:window-x="-8"
     inkscape:window-y="-8"
     inkscape:window-maximized="1"
     inkscape:current-layer="Layer_1" />
  <path
     id="path1"
     d="m 27.570506,25.259766 c 0.613686,0 1.22825,0.233615 1.696712,0.701495 0.935762,0.936926 0.935762,2.454937 0,3.391862 l -8.919457,8.927271 h 48.917434 c 7.333643,0 15.125687,8.879515 15.125687,16.213155 0,7.333639 -7.792044,15.811227 -15.125687,15.811227 H 23.433402 c -3.199692,0 -3.199692,-4.799541 0,-4.799541 h 45.831793 c 4.682928,0 10.326146,-6.328761 10.326146,-11.011686 0,-4.682926 -5.643218,-11.413617 -10.326146,-11.413617 H 20.339949 l -2.949807,-0.01173 c -1.457095,0 -2.23944,0.0024 -3.155858,0.0024 -0.547216,0 -1.391386,-0.406812 -1.687338,-0.987404 -0.471286,-0.924557 -0.629538,-2.161215 0.30622,-3.098141 L 25.875355,25.961261 c 0.468464,-0.46788 1.081463,-0.701495 1.695151,-0.701495 z"
     sodipodi:nodetypes="scccssssssssccsaccs"
     style="stroke-width:0.799923" />
</svg>
