<?xml version="1.0" encoding="UTF-8" standalone="no"?>
<!-- Created with Inkscape (http://www.inkscape.org/) -->

<svg
   version="1.1"
   id="svg1"
   width="800"
   height="800"
   viewBox="0 0 800 800"
   sodipodi:docname="move_folder_outline.svg"
   inkscape:version="1.4.3 (0d15f75, 2025-12-25)"
   xml:space="preserve"
   xmlns:inkscape="http://www.inkscape.org/namespaces/inkscape"
   xmlns:sodipodi="http://sodipodi.sourceforge.net/DTD/sodipodi-0.dtd"
   xmlns="http://www.w3.org/2000/svg"
   xmlns:svg="http://www.w3.org/2000/svg"><defs
     id="defs1" /><sodipodi:namedview
     id="namedview1"
     pagecolor="#ffffff"
     bordercolor="#000000"
     borderopacity="0.25"
     inkscape:showpageshadow="2"
     inkscape:pageopacity="0.0"
     inkscape:pagecheckerboard="0"
     inkscape:deskcolor="#d1d1d1"
     inkscape:zoom="0.25000001"
     inkscape:cx="164"
     inkscape:cy="529.99999"
     inkscape:window-width="1920"
     inkscape:window-height="1009"
     inkscape:window-x="-8"
     inkscape:window-y="-8"
     inkscape:window-maximized="1"
     inkscape:current-layer="svg1" /><path
     id="path1"
     style="fill:#000000;stroke-width:1.62883"
     d="M 236.37305 95.996094 C 126.45126 95.996094 127.99962 95.871356 106.06641 106.5293 C 77.875528 120.22801 57.214858 147.27084 51.556641 177.87891 C 49.074497 191.30604 49.881891 255.17922 49.900391 384.19141 C 49.924245 550.5208 50.298883 583.14036 52.298828 592.58008 C 58.339255 621.09082 79.119264 647.51049 105.37695 660.06445 C 117.45276 665.83796 128.65974 670.76953 141.08594 670.76953 C 227.04404 670.76953 262.43424 671.2672 405.77148 671.12695 C 651.9723 670.88613 666.92567 670.70968 676.1582 667.92969 C 693.41164 662.73453 707.82257 654.03523 720.97852 640.87305 C 734.86408 626.98087 741.8992 614.41294 747.04102 594.30859 C 750.16128 582.10854 750.26763 575.8997 750.24023 410.50781 C 750.20884 220.55886 750.54611 226.98842 739.44336 204.3125 C 735.07174 195.38404 728.14648 184.51472 718.97266 175.64453 C 708.10823 165.13969 692.26205 157.18893 679.47461 152.15039 C 677.18196 151.24703 674.33735 150.60988 671.05859 150.21094 C 666.74639 149.68626 667.4651 149.81176 539.87109 149.27539 L 383.18359 148.80469 L 378.04297 140.79492 C 374.4 135.11784 363.50533 119.12728 355.06641 114.08008 C 349.72935 110.88806 330.16419 99.973748 317.99805 98.580078 C 304.93817 97.084027 280.44838 95.996094 236.37305 95.996094 z M 403.70312 182.45117 C 405.36102 180.79326 646.21645 181.48529 658.24023 183.1875 C 684.24053 186.86838 705.55142 204.45186 713.68164 228.92969 C 715.11661 233.24994 716.05582 238.51183 715.76953 240.625 C 715.25855 244.3968 715.05691 244.33736 704.68945 237.37109 C 695.89486 231.46168 681.18182 221.45898 664.8418 221.45898 C 633.25626 221.45898 562.09766 220.62305 562.09766 220.62305 L 429.26367 219.78711 L 424.41992 216.01953 C 419.34848 212.07667 402.07176 184.08256 403.70312 182.45117 z M 448.86914 318.35547 C 453.77953 318.35547 458.68981 320.22185 462.44531 323.95508 L 545.05859 406.75977 C 552.24451 413.90219 556.32622 423.58942 556.41992 433.7207 C 556.37692 443.91884 552.29134 453.68339 545.05859 460.87305 L 462.44531 543.67969 C 454.8933 551.17262 442.69706 551.12717 435.20117 543.57812 C 427.70528 536.02906 427.74686 523.83285 435.29297 516.33398 L 498.64844 452.97852 L 271.98242 452.97852 C 261.34698 452.97852 252.72461 444.35613 252.72461 433.7207 C 252.72461 423.08527 261.34698 414.46289 271.98242 414.46289 L 498.64844 414.46289 L 435.29297 351.30078 C 427.698 343.76783 427.698 331.48803 435.29297 323.95508 C 439.04847 320.22185 443.95875 318.35547 448.86914 318.35547 z " /></svg>
